<svg preserveAspectRatio="xMidYMid meet" width="100%" height="100%" overflow="visible" style="display: block;" viewBox="0 0 16 22" fill="none" xmlns="http://www.w3.org/2000/svg">
<path id="Vector" fill-rule="evenodd" clip-rule="evenodd" d="M8.89169 5.26444C10.6742 5.26444 12.3827 5.95685 13.4991 6.90727C13.7813 7.14773 14.2041 7.14624 14.4691 6.88868L15.7972 5.59643C16.0778 5.3237 16.0674 4.87711 15.7648 4.62789C14.8735 3.89288 13.6768 3.17013 12.2041 2.70738L12.6207 0.804523C12.711 0.389786 12.3818 0 11.9397 0H9.37307C9.04478 0 8.76088 0.220351 8.69245 0.528362L8.31726 2.22065C4.90528 2.3842 2.01345 4.01725 2.01345 7.36806C2.01345 10.2689 4.40607 11.5121 6.93143 12.3725C9.32405 13.2328 10.5864 13.5522 10.5864 14.7631C10.5864 16.0063 9.32405 16.7394 7.46284 16.7394C5.76594 16.7394 3.98845 16.2022 2.60919 14.8977C2.33864 14.6415 1.90571 14.6397 1.63516 14.8957L0.207902 16.2462C-0.0713225 16.5101 -0.0687841 16.944 0.212485 17.2055C1.3253 18.2416 2.73418 18.992 4.34232 19.4122L3.95064 21.1748C3.85937 21.5882 4.18552 21.9779 4.6266 21.9813L7.19733 22C7.52814 22.0025 7.81554 21.7807 7.88298 21.4696L8.2541 19.7748C12.3393 19.533 14.8397 17.4029 14.8397 14.2852C14.8397 11.4167 12.3481 10.2052 9.32405 9.21707C7.59597 8.61085 6.10024 8.19709 6.10024 6.95429C6.10024 5.74335 7.49656 5.26444 8.89169 5.26444Z" fill="var(--fill-0, white)"/>
</svg>
