<svg preserveAspectRatio="xMidYMid meet" width="100%" height="100%" overflow="visible" style="display: block;" viewBox="0 0 31 24" fill="none" xmlns="http://www.w3.org/2000/svg">
<path id="Vector" fill-rule="evenodd" clip-rule="evenodd" d="M30.1563 18.8283C26.4256 17.6992 22.7387 16.4157 19.1041 14.9808C20.8331 11.9883 21.5868 8.08361 21.5868 8.08361L15.4988 8.06844V5.63718H22.9389V3.83239L15.4977 3.82656V0H12.3567C11.695 0 11.3149 0.407155 11.3149 1.1153V3.81723L3.80819 3.81139V5.63134H11.3149V8.05094L5.15259 8.03578V9.88373L17.1335 9.88956C16.7293 11.2126 16.218 12.4968 15.6052 13.7278C12.2902 12.5717 9.51716 11.8063 6.8195 11.8063C2.10914 11.8063 0 14.8898 0 17.9428C0 21.5676 2.77524 24 6.90706 24C11.5565 24 14.8216 20.8419 16.8997 18.3943C20.6381 20.2574 25.5535 22.4355 27.9973 23.5018C30.1563 24.4958 32.2001 19.6788 30.1563 18.8283ZM1.69019 17.7853L1.6913 17.7888C1.6913 15.5594 3.99661 14.3951 6.39058 14.3951C8.85327 14.3951 10.5579 15.1604 13.7388 16.7517C11.3592 19.7535 8.87101 21.2736 6.33073 21.2736C3.04234 21.2736 1.69019 19.5213 1.69019 17.7853Z" fill="var(--fill-0, white)"/>
</svg>
