<svg preserveAspectRatio="none" width="100%" height="100%" overflow="visible" style="display: block;" viewBox="0 0 26 16.6445" fill="none" xmlns="http://www.w3.org/2000/svg">
<g id="Group">
<path id="Vector" d="M23.6718 0H2.32816C2.16457 0.000363301 2.00097 0.00160518 1.83739 0.00372524C1.67357 0.00571838 1.51014 0.0200382 1.34847 0.0465634C1.18457 0.0763639 1.03184 0.12479 0.88284 0.200222C0.588702 0.350099 0.349698 0.589429 0.200222 0.883771C0.123858 1.03277 0.0763637 1.18457 0.0465632 1.34847C0.0186253 1.50958 0.00838134 1.67441 0.00372501 1.83739L0 2.06089V14.3163C0.000608249 14.4802 0.0018499 14.6442 0.00372501 14.8081C0.00838134 14.971 0.017694 15.1359 0.0465632 15.297C0.0763637 15.4609 0.123858 15.6136 0.200222 15.7617C0.349676 16.0563 0.589095 16.2958 0.883771 16.4452C1.03277 16.5206 1.18457 16.5691 1.34847 16.5979C1.50958 16.6268 1.67442 16.6371 1.83739 16.6417L2.06089 16.6445H23.9382L24.1635 16.6417C24.3256 16.6371 24.4904 16.6268 24.6525 16.5979C24.8154 16.5691 24.9682 16.5206 25.1172 16.4452C25.4116 16.2958 25.6507 16.0563 25.7998 15.7617C25.8741 15.615 25.9259 15.4581 25.9534 15.296C25.98 15.1347 25.9943 14.9716 25.9963 14.8081C25.9981 14.7335 25.9991 14.659 25.9991 14.5836L26 14.3163V2.06182C26 1.98732 25.9981 1.91282 25.9963 1.83739C25.9944 1.67357 25.98 1.51013 25.9534 1.34847C25.9016 1.022 25.7478 0.720272 25.5142 0.486441C25.2805 0.25261 24.9789 0.0986468 24.6525 0.0465634C24.4908 0.0200696 24.3274 0.00574998 24.1635 0.00372524L23.9382 0.000931198L23.6718 0Z" fill="var(--fill-0, black)"/>
<path id="Vector_2" d="M23.672 0.555023H23.9346C24.0054 0.555023 24.0771 0.556885 24.1488 0.558748C24.2726 0.561542 24.4188 0.568061 24.5539 0.593205C24.6722 0.614624 24.7709 0.646287 24.8659 0.695644C25.0557 0.792051 25.2099 0.94631 25.3063 1.13613C25.3538 1.22926 25.3864 1.32797 25.4069 1.44718C25.4311 1.58128 25.4386 1.72656 25.4414 1.85228L25.4451 2.06647V14.5808C25.4451 14.6516 25.4432 14.7224 25.4414 14.7931C25.4405 14.9292 25.429 15.0649 25.4069 15.1992C25.3891 15.3074 25.3549 15.4123 25.3054 15.5102C25.209 15.7 25.0547 15.8542 24.8649 15.9507C24.7673 16 24.6627 16.0342 24.5548 16.0522C24.4211 16.0734 24.286 16.0849 24.1506 16.0867C24.0786 16.0885 24.0066 16.0895 23.9346 16.0895H2.06476C1.99305 16.0895 1.92134 16.0885 1.85243 16.0867C1.71643 16.085 1.58074 16.0734 1.4464 16.0522C1.33783 16.034 1.23264 15.9995 1.13442 15.9498C0.944742 15.8539 0.790711 15.6999 0.694866 15.5102C0.645156 15.412 0.610617 15.3068 0.592426 15.1982C0.571253 15.0642 0.560047 14.9288 0.558901 14.7931C0.556928 14.7221 0.555686 14.651 0.555176 14.5799V2.06554C0.555176 1.99383 0.556107 1.92305 0.558901 1.85134C0.561695 1.72749 0.568214 1.58221 0.593358 1.44624C0.611063 1.33798 0.645298 1.23307 0.694866 1.1352C0.791114 0.945263 0.945416 0.790961 1.13535 0.694713C1.22941 0.646287 1.32813 0.614624 1.4464 0.592274C1.58076 0.571394 1.71646 0.56019 1.85243 0.558748L2.06476 0.555023H23.672Z" fill="var(--fill-0, white)"/>
<path id="Vector_3" d="M7.09805 5.59878C7.32063 5.3194 7.47149 4.9469 7.43145 4.56415C7.1055 4.57998 6.70786 4.77834 6.47783 5.05772C6.27109 5.29612 6.08856 5.68632 6.13606 6.05231C6.50204 6.08397 6.8671 5.86885 7.09805 5.59878ZM7.42772 6.12309C6.8969 6.09142 6.44431 6.42482 6.191 6.42482C5.93677 6.42482 5.54843 6.13892 5.12843 6.1473C4.85514 6.15425 4.58842 6.23261 4.3548 6.37458C4.12117 6.51655 3.92877 6.7172 3.79672 6.95657C3.22585 7.93999 3.64585 9.39928 4.20089 10.2011C4.47096 10.5969 4.79504 11.0336 5.22342 11.0178C5.62759 11.002 5.78683 10.7571 6.27761 10.7571C6.76932 10.7571 6.9118 11.0178 7.34018 11.0104C7.7844 11.002 8.06191 10.6136 8.33105 10.2169C8.64116 9.76434 8.76781 9.3285 8.77526 9.30429C8.76781 9.29684 7.9185 8.9709 7.91105 7.99586C7.9036 7.17821 8.5769 6.78987 8.6095 6.76659C8.22768 6.20318 7.63353 6.13892 7.42679 6.12402" fill="var(--fill-0, black)"/>
<path id="Vector_4" d="M12.0536 5.01764C13.2083 5.01764 14.012 5.81387 14.012 6.9733C14.012 8.13552 13.1925 8.93547 12.0247 8.93547H10.7461V10.9684H9.82227V5.01764H12.0536ZM10.7461 8.16066H11.8059C12.6105 8.16066 13.0677 7.72762 13.0677 6.97702C13.0677 6.22642 12.6105 5.79711 11.8105 5.79711H10.7461V8.16066ZM14.2542 9.73543C14.2542 8.97645 14.8353 8.51082 15.8662 8.45308L17.0535 8.38323V8.04891C17.0535 7.56651 16.7276 7.27782 16.1837 7.27782C15.6678 7.27782 15.3465 7.52554 15.2683 7.91294H14.4274C14.4767 7.12882 15.1444 6.55143 16.2163 6.55143C17.2687 6.55143 17.9401 7.10833 17.9401 7.97906V10.9684H17.0871V10.2551H17.0666C16.8151 10.7375 16.2657 11.0429 15.6976 11.0429C14.8474 11.0429 14.2542 10.5149 14.2542 9.73543ZM17.0535 9.3443V9.00159L15.9854 9.06678C15.4546 9.10403 15.1528 9.33964 15.1528 9.71122C15.1528 10.0902 15.4657 10.338 15.9444 10.338C16.5674 10.338 17.0535 9.90958 17.0535 9.3443ZM18.7466 12.5646V11.8429C18.8118 11.8596 18.9608 11.8596 19.0353 11.8596C19.4478 11.8596 19.6704 11.6864 19.8064 11.2413C19.8064 11.232 19.8846 10.9768 19.8846 10.9731L18.3182 6.63059H19.283L20.381 10.1601H20.3968L21.4938 6.63059H22.4344L20.8093 11.1957C20.4387 12.248 20.0094 12.5851 19.1107 12.5851C18.9894 12.5847 18.8681 12.5778 18.7475 12.5646H18.7466Z" fill="var(--fill-0, black)"/>
</g>
</svg>
