<svg preserveAspectRatio="none" width="100%" height="100%" overflow="visible" style="display: block;" viewBox="0 0 24 11.5082" fill="none" xmlns="http://www.w3.org/2000/svg">
<path id="Vector" fill-rule="evenodd" clip-rule="evenodd" d="M13.2787 0.295082V5.40984H21.4426C22.855 5.40984 24 4.26486 24 2.85246C24 1.44006 22.855 0.295082 21.4426 0.295082H13.2787ZM12.5823 5.40984C12.5358 4.40378 12.2848 3.50156 11.8618 2.73549C11.391 1.88303 10.7071 1.19916 9.85467 0.728401C9.00222 0.257643 7.98117 0 6.83607 0H5.7541C4.60899 0 3.58795 0.257643 2.73549 0.728401C1.88303 1.19916 1.19916 1.88303 0.728401 2.73549C0.257643 3.58795 0 4.60899 0 5.7541C0 6.8992 0.257643 7.92025 0.728401 8.77271C1.19916 9.62516 1.88303 10.309 2.73549 10.7798C3.58795 11.2506 4.60899 11.5082 5.7541 11.5082H6.83607C7.98117 11.5082 9.00222 11.2506 9.85467 10.7798C10.7071 10.309 11.391 9.62516 11.8618 8.77271C12.2848 8.00663 12.5358 7.10441 12.5823 6.09836H6.4918V5.40984H12.5823ZM13.2787 6.09836V11.2131H21.4426C22.855 11.2131 24 10.0681 24 8.65574C24 7.24334 22.855 6.09836 21.4426 6.09836H13.2787Z" fill="var(--fill-0, white)"/>
</svg>
