<svg preserveAspectRatio="none" width="100%" height="100%" overflow="visible" style="display: block;" viewBox="0 0 32 32" fill="none" xmlns="http://www.w3.org/2000/svg">
<g id="symbol_sq">
<path id="Vector" d="M27.1753 14.0141L26.0089 16.6719L24.6898 14.0141H23.6747L25.5449 17.7012L24.7735 19.4221H25.7584L28.1602 14.0123H27.1753V14.0141ZM23.1113 18.1226H22.1477V17.7386C21.7992 18.039 21.3832 18.2061 20.8784 18.2061C19.7246 18.2061 18.8215 17.2675 18.8215 16.0675C18.8215 14.8675 19.7246 13.9288 20.8784 13.9288C21.3815 13.9288 21.7992 14.0959 22.1477 14.3964V14.0123H23.1113V18.1226ZM22.2597 16.0675C22.2597 15.2924 21.7192 14.7039 21.001 14.7039C20.2846 14.7039 19.7424 15.2924 19.7424 16.0675C19.7424 16.8426 20.2828 17.431 21.001 17.431C21.7192 17.431 22.2597 16.8426 22.2597 16.0675ZM14.0286 19.4221H15.0348V17.7741C15.3744 18.0533 15.7779 18.2061 16.2615 18.2061C17.4152 18.2061 18.3184 17.2675 18.3184 16.0675C18.3184 14.8675 17.4152 13.9288 16.2615 13.9288C15.7584 13.9288 15.3406 14.0959 14.9921 14.3964V14.0123H14.0286V19.4221ZM16.1388 14.7057C16.8552 14.7057 17.3975 15.2941 17.3975 16.0693C17.3975 16.8444 16.857 17.4328 16.1388 17.4328C15.4224 17.4328 14.8801 16.8444 14.8801 16.0693C14.8801 15.2941 15.4206 14.7057 16.1388 14.7057Z" fill="var(--fill-0, black)"/>
<path id="Vector_2" d="M12.2259 16.1938C12.2259 18.5102 10.3486 20.3875 8.03216 20.3875C5.71573 20.3875 3.8384 18.5102 3.8384 16.1938C3.8384 13.8773 5.71573 12 8.03216 12C10.3486 12 12.2259 13.8773 12.2259 16.1938ZM8.7344 14.224V16.3324L7.26951 14.224H6.06062V18.1653H7.32994V16.0569L8.79483 18.1653H10.0037V14.224H8.7344Z" fill="var(--fill-0, black)"/>
</g>
</svg>
