<svg preserveAspectRatio="none" width="100%" height="100%" overflow="visible" style="display: block;" viewBox="0 0 24.8373 5.62099" fill="none" xmlns="http://www.w3.org/2000/svg">
<g id="Vector">
<path d="M0 0.644215C0 0.310654 0.264038 0.0466155 0.5976 0.0466155H2.22029C3.51682 0.0466155 4.3008 0.815064 4.3008 1.92521V1.94074C4.3008 3.19881 3.3223 3.8504 2.10343 3.8504H1.1952V4.97607C1.1952 5.30964 0.931161 5.57367 0.5976 5.57367C0.264038 5.57367 0 5.30964 0 4.97607V0.644215ZM2.14263 2.78685C2.74023 2.78685 3.09006 2.42962 3.09006 1.96367V1.94814C3.09006 1.41266 2.7173 1.12496 2.1197 1.12496H1.19594V2.78611H2.14337L2.14263 2.78685Z" fill="var(--fill-0, white)"/>
<path d="M4.11069 4.75936L6.00482 0.481495C6.13647 0.186393 6.37758 0.00814825 6.70374 0.00814825H6.774C7.10017 0.00814825 7.33315 0.186393 7.46479 0.481495L9.35892 4.75936C9.39738 4.84442 9.42105 4.92207 9.42105 4.99973C9.42105 5.31776 9.17254 5.5744 8.85451 5.5744C8.57494 5.5744 8.38856 5.41169 8.27984 5.16318L7.91521 4.30894H5.52408L5.14392 5.20164C5.04333 5.43462 4.84142 5.5744 4.59291 5.5744C4.28228 5.5744 4.04191 5.3259 4.04191 5.01526C4.04191 4.93021 4.07223 4.84442 4.11069 4.75936ZM7.47219 3.25279L6.71927 1.45925L5.96636 3.25279H7.47219Z" fill="var(--fill-0, white)"/>
<path d="M10.6858 3.43177L8.93146 1.04803C8.84567 0.931909 8.78428 0.792123 8.78428 0.621275C8.78428 0.303245 9.04832 0.0466029 9.38188 0.0466029C9.65332 0.0466029 9.82417 0.193784 9.97209 0.411228L11.2923 2.31349L12.6354 0.395696C12.7826 0.178252 12.9616 0.0384673 13.2101 0.0384673C13.5747 0.0384673 13.7921 0.29437 13.7921 0.620535C13.7921 0.783248 13.7145 0.931169 13.6368 1.03989L11.8825 3.4081V4.97606C11.8825 5.30962 11.6184 5.57366 11.2849 5.57366C10.9513 5.57366 10.6873 5.30962 10.6873 4.97606V3.43103L10.6858 3.43177Z" fill="var(--fill-0, white)"/>
<path d="M13.8277 2.82603V2.81049C13.8277 1.26546 14.9918 0 16.6611 0C17.4761 0 18.0271 0.217443 18.4776 0.551005C18.6018 0.644195 18.7105 0.815043 18.7105 1.02435C18.7105 1.35052 18.4465 1.60642 18.1203 1.60642C17.9576 1.60642 17.8489 1.54429 17.7631 1.4903C17.4295 1.24179 17.0797 1.10201 16.653 1.10201C15.7366 1.10201 15.0769 1.86306 15.0769 2.79422V2.80975C15.0769 3.74166 15.7211 4.5175 16.653 4.5175C17.1574 4.5175 17.4917 4.36218 17.8334 4.09075C17.9266 4.01309 18.0508 3.9591 18.1906 3.9591C18.4931 3.9591 18.7497 4.20761 18.7497 4.5101C18.7497 4.69648 18.6565 4.84366 18.5478 4.93685C18.0589 5.36361 17.4843 5.62025 16.6145 5.62025C15.0155 5.62025 13.8277 4.38659 13.8277 2.82603Z" fill="var(--fill-0, white)"/>
<path d="M19.061 2.82603V2.81049C19.061 1.26546 20.2799 0 21.9566 0C23.6332 0 24.8373 1.24993 24.8373 2.79496V2.81049C24.8373 4.35553 23.6185 5.62099 21.941 5.62099C20.2636 5.62099 19.061 4.37106 19.061 2.82603ZM23.5874 2.82603V2.81049C23.5874 1.87859 22.904 1.10275 21.9418 1.10275C20.9796 1.10275 20.3117 1.8638 20.3117 2.79496V2.81049C20.3117 3.74239 20.9951 4.51824 21.9573 4.51824C22.9195 4.51824 23.5874 3.75719 23.5874 2.82603Z" fill="var(--fill-0, white)"/>
</g>
</svg>
