<svg preserveAspectRatio="xMidYMid meet" width="100%" height="100%" overflow="visible" style="display: block;" viewBox="0 0 17.4993 20.6469" fill="none" xmlns="http://www.w3.org/2000/svg">
<g id="Group">
<path id="Path" d="M15.7694 5.24578C15.7503 5.36825 15.7284 5.49346 15.7038 5.62208C14.8574 9.96738 11.9619 11.4685 8.26386 11.4685H6.38097C5.92872 11.4685 5.54762 11.7969 5.47715 12.243L4.51313 18.3569L4.24014 20.09C4.21813 20.2291 4.25812 20.3709 4.34958 20.478C4.44104 20.5851 4.5748 20.6469 4.71565 20.6469H8.05518C8.45065 20.6469 8.78659 20.3596 8.84885 19.9696L8.88169 19.7999L9.51046 15.8097L9.55083 15.5907C9.6124 15.1994 9.94903 14.912 10.3445 14.912H10.8439C14.0795 14.912 16.6124 13.5984 17.3527 9.79702C17.6619 8.20901 17.5018 6.88305 16.6835 5.9505C16.4242 5.66202 16.1144 5.42321 15.7694 5.24578Z" fill="var(--fill-0, #179BD7)"/>
<path id="Path_2" d="M14.8839 4.89269C14.6137 4.81451 14.3388 4.7535 14.0608 4.71001C13.5117 4.62561 12.9566 4.58511 12.401 4.58891H7.37083C6.97528 4.58867 6.6386 4.87677 6.57785 5.26763L5.50777 12.0452L5.47699 12.243C5.54587 11.7971 5.92969 11.4682 6.3808 11.4684H8.2637C11.9617 11.4684 14.8572 9.96665 15.7036 5.62204C15.7289 5.49341 15.7501 5.3682 15.7693 5.24573C15.5459 5.12862 15.3132 5.03043 15.0734 4.95221C15.0106 4.93136 14.9474 4.91152 14.8839 4.89269Z" fill="var(--fill-0, #222D65)"/>
<path id="Path_3" d="M6.57775 5.26759C6.638 4.87655 6.97509 4.58832 7.37073 4.58955H12.4009C12.9968 4.58955 13.5531 4.62855 14.0608 4.71066C14.4043 4.76465 14.7431 4.8454 15.074 4.95217C15.3238 5.03496 15.5557 5.1328 15.7699 5.24569C16.0216 3.6399 15.7678 2.54656 14.8996 1.55653C13.9424 0.466618 12.2148 0 10.0042 0H3.58647C3.13491 0 2.74971 0.328412 2.67992 0.775188L0.00678409 17.7192C-0.0184136 17.8784 0.0273026 18.0406 0.131907 18.1633C0.236512 18.2859 0.389532 18.3566 0.550716 18.3568H4.51287L5.50768 12.0452L6.57775 5.26759Z" fill="var(--fill-0, #253B80)"/>
</g>
</svg>
