<svg preserveAspectRatio="xMidYMid meet" width="100%" height="100%" overflow="visible" style="display: block;" viewBox="0 0 14.8456 20" fill="none" xmlns="http://www.w3.org/2000/svg">
<g id="Vector">
<path d="M3.4652 4.93564H0V20H3.4652V4.93564Z" fill="var(--fill-0, white)"/>
<path d="M14.332 5.79717C14.332 2.60064 11.9108 0 8.93457 0H0V3.21711H8.50975C9.85663 3.21711 10.9723 4.35471 10.997 5.7529C11.0093 6.45297 10.7649 7.11371 10.3088 7.61331C9.85256 8.11312 9.24295 8.38853 8.59232 8.38853H5.27734C5.15965 8.38853 5.06385 8.49133 5.06385 8.61786V11.4771C5.06385 11.5257 5.07781 11.5722 5.10412 11.6113L10.7285 20H14.8456L9.2082 11.5884C12.0472 11.4352 14.332 8.87072 14.332 5.79717Z" fill="var(--fill-0, white)"/>
</g>
</svg>
