<svg preserveAspectRatio="none" width="100%" height="100%" overflow="visible" style="display: block;" viewBox="0 0 22 22" fill="none" xmlns="http://www.w3.org/2000/svg">
<g id="Vector">
<path d="M21.7983 7.72083C21.5271 5.67748 20.8041 3.82668 19.529 2.471C18.1733 1.19588 16.3225 0.472851 14.2792 0.201715C12.3282 -0.0576325 11 0.00720401 11 0.00720401C11 0.00720401 9.67183 -0.0556677 7.72083 0.201715C5.67748 0.472851 3.82668 1.19588 2.471 2.471C1.19588 3.82668 0.472851 5.67748 0.201715 7.72083C-0.0576325 9.67183 0.00720401 11 0.00720401 11C0.00720401 11 -0.0556677 12.3282 0.201715 14.2792C0.472851 16.3225 1.19588 18.1733 2.471 19.529C3.82668 20.8041 5.67748 21.5271 7.72083 21.7983C9.67183 22.0576 11 21.9928 11 21.9928C11 21.9928 12.3282 22.0557 14.2792 21.7983C16.3225 21.5271 18.1733 20.8041 19.529 19.529C20.8041 18.1733 21.5271 16.3225 21.7983 14.2792C22.0576 12.3282 21.9928 11 21.9928 11C21.9928 11 22.0557 9.67183 21.7983 7.72083Z" fill="white"/>
<path d="M4.05065 7.77713H6.02523C6.32583 7.77713 6.60286 7.83214 6.85435 7.93824C7.10781 8.0463 7.32589 8.19169 7.51058 8.37638C7.69527 8.56107 7.83869 8.77719 7.94479 9.02868C8.05089 9.2782 8.10197 9.5454 8.10197 9.83029C8.10197 10.1152 8.04892 10.3844 7.94479 10.6358C7.83869 10.8893 7.69527 11.1074 7.51058 11.2921C7.32589 11.4768 7.10584 11.6221 6.85042 11.7302C6.595 11.8383 6.31797 11.8913 6.01737 11.8913H5.12537V13.5417H4.05065V7.7732V7.77713ZM5.12537 8.77326V10.8991H5.94664C6.10382 10.8991 6.24921 10.8716 6.38085 10.8166C6.51248 10.7616 6.62644 10.685 6.72075 10.5867C6.81506 10.4885 6.88972 10.3765 6.94277 10.2468C6.99581 10.1171 7.02136 9.97962 7.02136 9.83226C7.02136 9.6849 6.99581 9.54737 6.94277 9.4177C6.88972 9.28802 6.81702 9.17603 6.72075 9.08172C6.62448 8.98742 6.51248 8.91276 6.38085 8.85578C6.24921 8.7988 6.10382 8.77326 5.94664 8.77326H5.12537Z" fill="var(--fill-0, #1F4AC7)"/>
<path d="M10.5856 13.5515C10.3067 13.5515 10.0316 13.5004 9.76045 13.3963C9.48931 13.2922 9.24568 13.1409 9.02956 12.9425C8.81344 12.744 8.64054 12.5023 8.5089 12.2155C8.37726 11.9286 8.31046 11.6025 8.31046 11.237C8.31046 10.8716 8.3753 10.5376 8.50497 10.2507C8.63464 9.96389 8.80558 9.72222 9.01777 9.52378C9.23193 9.32534 9.47556 9.17406 9.75259 9.06992C10.0296 8.96579 10.3125 8.91274 10.6014 8.91274C10.9059 8.91274 11.1888 8.96776 11.4462 9.07778C11.7036 9.18781 11.9177 9.33909 12.0867 9.52968V8.9206H13.1536V13.5437H12.0867V12.8874C11.9177 13.0937 11.7016 13.2568 11.4383 13.3747C11.1751 13.4926 10.8902 13.5515 10.5856 13.5515ZM10.7585 12.5711C10.9589 12.5711 11.1436 12.5357 11.3126 12.467C11.4816 12.3982 11.625 12.3019 11.7468 12.1782C11.8686 12.0544 11.9649 11.911 12.0356 11.7479C12.1064 11.5848 12.1417 11.4099 12.1417 11.2213C12.1417 11.0327 12.1064 10.8657 12.0356 10.7026C11.9649 10.5396 11.8686 10.3961 11.7468 10.2763C11.625 10.1545 11.4816 10.0602 11.3126 9.99139C11.1436 9.92263 10.9589 9.88726 10.7585 9.88726C10.5581 9.88726 10.3813 9.92263 10.2084 9.99139C10.0375 10.0602 9.88816 10.1545 9.76241 10.2724C9.63667 10.3902 9.53647 10.5317 9.46574 10.6948C9.39501 10.8578 9.35964 11.0347 9.35964 11.2213C9.35964 11.408 9.39501 11.5868 9.46574 11.7518C9.53647 11.9169 9.6347 12.0603 9.76241 12.1821C9.88816 12.3039 10.0375 12.3982 10.2084 12.467C10.3793 12.5357 10.5621 12.5711 10.7585 12.5711Z" fill="var(--fill-0, #1F4AC7)"/>
<path d="M15.3971 13.3452L13.5011 8.92258H14.6387L15.9256 12.0839L17.1418 8.92258H18.2637L15.5071 15.6695H14.4245L15.3971 13.3452Z" fill="var(--fill-0, #1F4AC7)"/>
</g>
</svg>
