<svg preserveAspectRatio="none" width="100%" height="100%" overflow="visible" style="display: block;" viewBox="0 0 23.9391 20.6715" fill="none" xmlns="http://www.w3.org/2000/svg">
<path id="Vector" d="M8.71023 13.0756C8.59864 13.131 8.47487 13.1589 8.34973 13.1569C8.0593 13.1575 7.79238 13.0009 7.65625 12.75L7.60067 12.6415L5.40935 7.97555C5.38672 7.92429 5.37718 7.86841 5.38156 7.81274C5.37897 7.71127 5.41904 7.61321 5.49243 7.54144C5.56582 7.46967 5.6661 7.43048 5.76985 7.43301C5.8595 7.43503 5.94646 7.46335 6.01945 7.51429L8.59933 9.30473C8.80025 9.42427 9.02988 9.48981 9.26501 9.49472C9.40775 9.49396 9.54901 9.46637 9.6811 9.41343L21.7768 4.15059C19.5843 1.62762 16.006 0 11.9836 0C5.35377 0 0 4.36751 0 9.76599C0 12.6959 1.60901 15.3545 4.13331 17.1459C4.42953 17.3307 4.54682 17.6971 4.4112 18.014C4.21693 18.7466 3.88421 19.9411 3.88421 19.9945C3.84988 20.0905 3.83112 20.1912 3.82863 20.2929C3.8264 20.3941 3.86656 20.4917 3.9398 20.5632C4.01303 20.6347 4.11298 20.6738 4.21642 20.6714C4.29836 20.6736 4.37792 20.6444 4.43823 20.5901L7.04589 19.0976C7.23838 18.9819 7.45803 18.9165 7.68379 18.9077C7.80566 18.9125 7.9266 18.9307 8.04429 18.962C9.31488 19.3246 10.632 19.5076 11.9555 19.5055C18.5576 19.5055 23.9391 15.138 23.9391 9.73955C23.9283 8.13484 23.4574 6.56527 22.58 5.20924L8.7936 13.0215L8.71023 13.0756Z" fill="var(--fill-0, #1AAD19)"/>
</svg>
